<svg width="99" height="101" viewBox="0 0 99 101" fill="none" xmlns="http://www.w3.org/2000/svg">
<circle cx="49.5" cy="49.5" r="49.5" fill="#ECECEC"/>
<g clip-path="url(#clip0_0_1)">
<path d="M34.9497 33.2185C37.2965 34.0135 39.529 35.1124 41.5904 36.4872C44.5016 35.7432 47.495 35.3694 50.4997 35.3747C53.6029 35.3747 56.5966 35.7622 59.4029 36.4841C61.4634 35.1106 63.6948 34.0127 66.0404 33.2185C68.2185 32.4779 71.3216 31.2779 73.1654 33.3185C74.4154 34.706 74.7279 37.031 74.9497 38.806C75.1997 40.7872 75.2591 43.3685 74.6029 45.931C77.1122 49.1716 78.6247 53.0372 78.6247 57.2497C78.6247 63.631 75.1685 69.1716 70.0529 73.0091C67.5909 74.8326 64.8604 76.2622 61.9591 77.2466C62.6279 78.7779 62.9997 80.4716 62.9997 82.2497V91.6247C62.9997 92.4535 62.6705 93.2484 62.0844 93.8344C61.4984 94.4205 60.7035 94.7497 59.8747 94.7497H41.1247C40.2959 94.7497 39.5011 94.4205 38.915 93.8344C38.329 93.2484 37.9997 92.4535 37.9997 91.6247V88.5279C35.0154 88.8935 32.5122 88.5685 30.3841 87.6654C28.1591 86.7216 26.6091 85.2591 25.4435 83.8591C24.3372 82.5341 23.131 79.5466 21.3872 78.9654C20.9978 78.8357 20.6377 78.6306 20.3275 78.3617C20.0173 78.0929 19.7631 77.7656 19.5795 77.3985C19.2085 76.6571 19.1472 75.7988 19.4091 75.0122C19.671 74.2257 20.2346 73.5754 20.976 73.2045C21.7173 72.8335 22.5757 72.7722 23.3622 73.0341C25.4435 73.7279 26.7997 75.2279 27.7279 76.4341C29.2279 78.3716 30.4466 80.9029 32.8216 81.9122C33.7997 82.3279 35.2341 82.5997 37.4779 82.2935L37.9997 82.1872C38.0057 80.4866 38.3599 78.8052 39.0404 77.2466C36.1391 76.2623 33.4085 74.8327 30.9466 73.0091C25.831 69.1716 22.3747 63.6341 22.3747 57.2497C22.3747 53.0435 23.8841 49.181 26.3872 45.9435C25.731 43.381 25.7872 40.7935 26.0372 38.8091L26.0529 38.6904C26.281 36.8716 26.5466 34.731 27.8216 33.3185C29.6654 31.2779 32.7716 32.481 34.9466 33.2216L34.9497 33.2185Z" fill="black"/>
</g>
<defs>
<clipPath id="clip0_0_1">
<rect width="75" height="75" fill="white" transform="translate(13 26)"/>
</clipPath>
</defs>
</svg>
