<svg width="99" height="99" viewBox="0 0 99 99" fill="none" xmlns="http://www.w3.org/2000/svg">
<circle cx="49.5" cy="49.5" r="49.5" fill="#007ACC"/>
<g clip-path="url(#clip0_0_1)">
<path d="M30.4495 42.6641H76.3911V76.6213H30.4495V42.6641Z" fill="white"/>
<path d="M20.6914 50.4585V79.2671H78.3086V21.6499H20.6914V50.4585ZM67.1216 48.1538C68.5016 48.4741 69.7559 49.1958 70.7262 50.228C71.2603 50.7841 71.7247 51.4033 72.109 52.0718C72.109 52.1455 69.6199 53.8279 68.1034 54.7683C68.0481 54.8051 67.8269 54.5654 67.5826 54.2013C67.3057 53.7236 66.9124 53.3239 66.4393 53.0393C65.9661 52.7548 65.4286 52.5948 64.8769 52.5742C63.1299 52.4544 62.0052 53.3716 62.0145 54.8789C62 55.2542 62.0859 55.6265 62.2634 55.9575C62.6459 56.7549 63.3604 57.2297 65.6005 58.1976C69.7259 59.9722 71.4913 61.143 72.5884 62.807C73.8145 64.6508 74.0864 67.6284 73.2567 69.8317C72.3348 72.2286 70.0762 73.8557 66.882 74.395C65.423 74.5621 63.9489 74.5466 62.4938 74.3489C60.2636 73.9813 58.2093 72.9105 56.6307 71.2929C56.1006 70.7075 55.0681 69.1818 55.1327 69.0712C55.3009 68.9462 55.4781 68.8338 55.6627 68.7347L57.7969 67.5547L59.4516 66.5959L59.7973 67.1076C60.3808 67.9421 61.1233 68.6533 61.9822 69.2002C63.8259 70.1682 66.3427 70.0345 67.5872 68.9144C68.005 68.504 68.2657 67.96 68.3238 67.3772C68.3819 66.7944 68.2338 66.2096 67.9052 65.7247C67.4443 65.084 66.5224 64.5447 63.9458 63.4201C60.9727 62.1386 59.6913 61.3458 58.5205 60.0829C57.7897 59.2494 57.25 58.2662 56.9395 57.202C56.7079 55.9863 56.6737 54.7411 56.8381 53.5145C57.4512 50.6429 59.6037 48.6378 62.7473 48.0432C64.2032 47.863 65.6779 47.9035 67.1216 48.163V48.1538ZM53.5977 50.5691V52.9291H46.1167V74.2383H40.8113V52.9245H33.3119V50.6198C33.2885 49.8251 33.307 49.0296 33.3672 48.2368C33.4041 48.1953 37.9766 48.1953 43.5078 48.1953H53.5701L53.5977 50.5691Z" fill="#007ACC"/>
</g>
<defs>
<clipPath id="clip0_0_1">
<rect width="59" height="59" fill="white" transform="translate(20 21)"/>
</clipPath>
</defs>
</svg>
